<?xml version="1.0" standalone="no"?>
<!DOCTYPE svg PUBLIC "-//W3C//DTD SVG 20010904//EN"
 "http://www.w3.org/TR/2001/REC-SVG-20010904/DTD/svg10.dtd">
<svg version="1.0" xmlns="http://www.w3.org/2000/svg"
 width="500.000000pt" height="500.000000pt" viewBox="0 0 500.000000 500.000000"
 preserveAspectRatio="xMidYMid meet">

<g transform="translate(0.000000,500.000000) scale(0.100000,-0.100000)"
fill="#000000" stroke="none">
<path d="M3449 3717 c-38 -31 -169 -267 -169 -307 0 -7 -20 6 -44 28 -25 23
-62 46 -85 52 -65 17 -237 -10 -343 -54 -12 -6 -30 10 -71 62 -40 50 -64 71
-86 75 -35 7 -125 -14 -184 -44 -23 -12 -180 -137 -350 -278 -169 -141 -314
-257 -322 -259 -27 -6 -55 19 -81 71 -48 96 -157 268 -182 287 -14 11 -33 20
-43 20 -31 0 -78 -48 -85 -88 -9 -46 10 -194 42 -324 17 -71 21 -104 14 -108
-7 -4 -84 -22 -172 -40 -161 -34 -207 -53 -195 -83 5 -13 10 -14 46 -1 22 7
102 23 178 34 76 11 148 23 161 25 17 4 22 1 22 -13 0 -16 -16 -21 -102 -36
-451 -76 -479 -83 -603 -137 -66 -28 -125 -56 -131 -61 -16 -12 -5 -48 15 -48
9 0 206 25 439 56 l423 57 38 -37 c23 -23 51 -39 73 -42 30 -5 38 -12 56 -55
13 -32 26 -49 38 -49 9 0 67 29 129 64 105 61 119 66 217 80 172 26 172 26
161 -79 -13 -125 100 -230 195 -181 44 23 63 65 61 135 -2 53 3 67 61 177 l62
120 72 0 c81 0 121 17 159 66 24 30 27 31 54 19 15 -7 71 -41 124 -76 74 -48
98 -69 103 -91 11 -43 54 -94 93 -111 46 -19 86 -9 119 30 23 28 26 38 22 92
-4 72 -26 108 -84 140 -35 19 -93 100 -94 130 0 6 55 31 121 57 l122 47 36
-28 c57 -46 109 -67 129 -55 25 16 26 38 2 65 l-21 24 16 -33 c15 -32 13 -52
-5 -52 -5 0 -7 7 -3 15 3 9 1 15 -5 13 -5 -2 -41 29 -79 69 -68 70 -64 78 10
20 30 -23 38 -26 35 -12 -3 18 22 28 564 239 107 42 156 66 182 92 37 36 46
70 24 92 -22 22 5 30 -669 -184 -147 -46 -274 -84 -283 -84 -9 0 -30 7 -46 15
-27 14 -30 21 -30 62 0 40 6 53 53 112 111 137 160 224 155 279 -2 28 -8 38
-23 39 -11 2 -27 -3 -36 -10z m43 -15 c-7 -2 -12 -11 -12 -19 0 -9 -15 -32
-33 -52 -17 -20 -42 -49 -55 -66 l-22 -30 10 28 c5 15 17 41 25 57 9 17 13 30
10 30 -4 0 1 10 9 22 19 27 57 49 70 40 6 -3 5 -7 -2 -10z m-850 -172 c-18 -4
-35 -10 -37 -12 -3 -2 12 -28 33 -57 37 -51 38 -52 82 -47 l44 4 -70 -33 c-39
-18 -90 -49 -113 -70 -44 -40 -51 -67 -32 -133 10 -32 9 -34 -40 -63 -61 -38
-65 -50 -5 -15 25 14 49 26 54 26 5 0 15 -21 22 -46 7 -25 24 -56 38 -69 l25
-23 -23 -12 c-23 -12 -23 -13 15 -26 21 -7 48 -23 59 -35 21 -22 21 -22 -12 1
-65 44 -87 41 -749 -85 -266 -51 -273 -52 -273 -26 0 37 51 85 335 317 160
131 322 264 360 297 76 65 138 97 191 102 19 1 37 5 41 9 3 3 25 6 47 5 l41
-1 -33 -8z m539 -76 c28 -14 79 -69 79 -85 0 -5 -14 -6 -32 -2 -52 11 -111 6
-123 -10 -8 -12 -22 -14 -53 -10 -37 5 -42 8 -37 27 l6 21 -18 -21 c-19 -22
-78 -39 -87 -25 -3 4 4 21 14 39 47 77 167 109 251 66z m1127 4 c3 -16 -147
-70 -652 -238 l-189 -63 -34 18 c-18 10 -33 21 -33 24 0 5 218 74 780 248 112
34 123 35 128 11z m-1400 -67 c-18 -33 -31 -43 -63 -52 -58 -14 -86 -31 -95
-54 -4 -11 -45 -44 -91 -72 l-82 -52 -14 26 c-7 14 -13 34 -13 44 0 20 24 26
35 9 3 -5 14 -10 23 -10 12 1 8 6 -10 16 -32 17 -33 22 -13 48 10 14 18 16 27
9 10 -8 33 1 88 33 70 41 221 107 228 99 2 -2 -7 -22 -20 -44z m-1380 -53 c11
-13 50 -88 87 -167 71 -155 88 -183 123 -202 21 -12 21 -13 5 -32 -39 -42
-109 -61 -131 -34 -18 21 -144 426 -138 442 8 21 29 19 54 -7z m1732 -14 c11
-12 10 -18 -3 -31 -8 -9 -23 -13 -31 -10 -19 8 -21 43 -3 50 20 9 24 8 37 -9z
m-1800 -12 c0 -10 -6 -24 -12 -31 -11 -12 -10 -13 6 -7 15 5 17 2 13 -13 -3
-11 0 -22 7 -24 7 -3 4 -12 -8 -26 -11 -11 -14 -21 -8 -21 6 0 14 5 18 11 4 8
9 7 15 -2 5 -9 0 -22 -14 -38 l-22 -24 22 12 c12 6 24 11 27 11 12 0 5 -24
-11 -43 -17 -19 -17 -20 5 -8 28 15 30 -3 5 -32 -17 -20 -17 -20 0 -14 32 12
40 -4 15 -30 l-23 -26 23 12 c21 11 24 9 38 -24 35 -84 24 -117 -42 -131 l-30
-6 -27 114 c-45 191 -52 299 -23 347 11 17 26 13 26 -7z m1337 -26 c9 8 22 13
30 10 8 -3 56 -7 106 -7 l92 -1 -65 -14 c-124 -26 -215 -17 -193 20 5 7 9 5
11 -6 3 -16 5 -16 19 -2z m372 -34 c-2 -15 0 -33 4 -40 14 -21 -21 -14 -43 10
-32 35 -24 55 23 57 14 1 18 -5 16 -27z m-333 -12 c39 0 44 -3 44 -22 0 -18
-17 -33 -73 -65 -112 -65 -121 -78 -20 -28 51 25 98 45 104 45 29 0 -8 -30
-116 -97 -115 -70 -118 -72 -141 -55 -21 15 -63 117 -52 127 18 18 186 104
196 100 8 -3 34 -5 58 -5z m118 -2 c3 -7 7 -25 10 -40 8 -37 63 -98 103 -114
74 -31 174 -2 214 62 l21 35 24 -22 c28 -26 27 -39 -2 -50 -18 -6 -20 -3 -17
25 l4 31 -22 -40 c-30 -55 -50 -77 -67 -70 -8 3 -40 0 -72 -7 -50 -10 -64 -9
-105 7 -61 23 -120 82 -136 135 -11 35 -10 43 2 51 20 12 39 11 43 -3z m86
-30 c14 -50 57 -92 107 -106 37 -10 37 -10 8 -11 -71 -2 -148 59 -161 128 -6
27 -4 31 14 31 16 0 24 -10 32 -42z m64 -38 c19 -17 39 -25 66 -25 26 0 34 -2
25 -8 -44 -24 -127 28 -140 88 l-6 30 14 -30 c8 -16 27 -41 41 -55z m101 51
c3 -5 1 -12 -5 -16 -5 -3 -10 1 -10 9 0 18 6 21 15 7z m55 -1 c0 -5 -2 -10 -4
-10 -3 0 -8 5 -11 10 -3 6 -1 10 4 10 6 0 11 -4 11 -10z m-75 -341 c17 -28 29
-53 28 -57 -5 -19 -23 -8 -48 30 -23 35 -24 39 -7 24 12 -11 22 -15 22 -9 0 5
-9 18 -20 28 -20 19 -26 35 -12 35 4 0 21 -23 37 -51z m-547 21 c38 -23 41
-38 10 -45 -13 -2 -417 -63 -898 -135 -820 -122 -881 -133 -968 -166 -51 -20
-95 -34 -98 -32 -5 5 213 102 256 114 48 13 1595 282 1630 283 19 1 50 -8 68
-19z m487 -66 c41 -64 41 -100 0 -90 -30 8 -157 87 -151 94 7 6 99 50 108 51
4 1 23 -24 43 -55z m-1520 16 c-16 -4 -39 -8 -50 -8 -16 0 -15 2 5 8 14 4 36
8 50 8 22 0 22 -1 -5 -8z m-82 -17 c-7 -2 -19 -2 -25 0 -7 3 -2 5 12 5 14 0
19 -2 13 -5z m-50 -10 c-7 -2 -19 -2 -25 0 -7 3 -2 5 12 5 14 0 19 -2 13 -5z
m-50 -10 c-7 -2 -19 -2 -25 0 -7 3 -2 5 12 5 14 0 19 -2 13 -5z m-56 -9 c-3
-3 -12 -4 -19 -1 -8 3 -5 6 6 6 11 1 17 -2 13 -5z m-50 -10 c-3 -3 -12 -4 -19
-1 -8 3 -5 6 6 6 11 1 17 -2 13 -5z m-44 -11 c-7 -2 -19 -2 -25 0 -7 3 -2 5
12 5 14 0 19 -2 13 -5z m-82 -19 c-24 -7 -53 -16 -65 -19 -20 -6 -20 -6 -1 6
20 13 70 27 95 27 8 0 -5 -6 -29 -14z m1079 -3 c-62 -17 -81 -18 -67 -5 9 9
68 22 102 22 20 0 8 -6 -35 -17z m968 -7 c32 -22 52 -67 52 -114 0 -50 -15
-80 -39 -80 -20 0 -81 63 -81 83 0 7 8 0 17 -14 23 -38 49 -52 73 -39 27 14
26 74 -1 119 -18 30 -24 33 -55 28 -35 -6 -42 1 -22 21 16 16 29 15 56 -4z
m-657 -16 c-5 -13 -27 -60 -49 -106 -23 -46 -43 -89 -45 -95 -2 -7 -7 -9 -11
-6 -7 7 99 229 109 229 2 0 1 -10 -4 -22z m-241 -16 c0 -15 -2 -15 -10 -2 -13
20 -13 33 0 25 6 -3 10 -14 10 -23z m32 15 c-8 -9 -6 -30 9 -76 10 -35 17 -66
14 -69 -5 -5 -25 42 -25 61 0 7 -4 6 -10 -3 -8 -11 -9 -7 -4 14 5 22 4 27 -6
21 -9 -6 -10 -1 -5 16 8 25 24 49 32 49 3 0 1 -6 -5 -13z m878 -32 c0 -2 3
-11 7 -21 5 -14 0 -13 -25 6 -33 25 -34 47 -1 30 10 -6 19 -12 19 -15z m-980
-56 c21 -43 27 -49 47 -44 33 8 28 -7 -9 -26 l-32 -16 -22 47 c-33 72 -38 90
-21 90 7 0 24 -23 37 -51z m235 -19 c-19 -38 -40 -70 -46 -70 -13 0 -59 46
-59 59 0 8 116 79 133 80 4 1 -9 -30 -28 -69z m740 30 c12 -19 -12 -10 -31 11
-19 22 -19 22 3 10 12 -6 25 -16 28 -21z m-1252 -15 c-97 -42 -256 -85 -315
-85 -57 0 -98 17 -98 40 0 4 33 10 73 14 39 4 81 9 92 12 14 4 10 -4 -15 -26
l-35 -31 65 33 c45 22 92 36 150 44 113 16 120 16 83 -1z m1259 -29 c10 6 11
4 0 -7 -10 -11 -15 -10 -30 6 -15 17 -15 18 0 6 9 -7 23 -9 30 -5z m-885 -18
c-3 -8 -6 -5 -6 6 -1 11 2 17 5 13 3 -3 4 -12 1 -19z m0 -80 c31 -34 43 -63
45 -105 4 -104 -59 -124 -113 -37 -26 43 -32 122 -10 147 19 24 54 21 78 -5z
m-507 -8 c-14 -11 -46 -31 -73 -45 l-47 -26 -15 35 c-8 19 -15 38 -15 40 0 4
36 8 145 14 l30 2 -25 -20z"/>
<path d="M2507 3478 l-57 -31 18 -31 c35 -60 67 -106 73 -106 3 0 32 18 63 41
36 26 55 46 52 55 -10 25 -71 103 -81 103 -5 0 -36 -14 -68 -31z"/>
<path d="M2401 3411 c-12 -8 -12 -20 3 -83 30 -127 25 -121 74 -80 l34 28 -44
72 c-46 77 -45 76 -67 63z"/>
<path d="M2300 3329 c-99 -77 -93 -64 -74 -155 9 -43 20 -82 24 -87 6 -7 152
96 157 111 1 4 -8 46 -20 94 l-22 87 -65 -50z"/>
<path d="M2163 3221 c-12 -10 -36 -30 -53 -44 l-30 -26 16 -73 c9 -40 20 -77
24 -81 12 -14 111 64 105 83 -2 8 -11 48 -20 88 -9 39 -17 72 -18 72 -1 -1
-12 -9 -24 -19z"/>
<path d="M1913 3021 c-210 -172 -209 -176 2 -16 152 115 160 121 148 127 -4 3
-72 -47 -150 -111z"/>
<path d="M3090 3392 l-25 -21 43 14 c36 13 47 13 83 1 38 -13 40 -13 27 1 -9
8 -36 17 -60 20 -34 4 -49 1 -68 -15z"/>
<path d="M2302 2508 c-22 -22 -14 -94 14 -127 47 -56 90 -33 81 45 -7 70 -61
116 -95 82z m71 -51 c24 -48 16 -90 -16 -85 -30 4 -62 65 -53 102 10 40 46 32
69 -17z"/>
<path d="M2330 2461 c0 -6 5 -13 10 -16 6 -3 10 -17 10 -31 0 -13 5 -24 10
-24 14 0 12 54 -2 68 -14 14 -28 16 -28 3z"/>
<path d="M2126 2088 c-53 -15 -131 -91 -145 -143 -14 -52 -14 -143 0 -186 38
-112 161 -170 283 -135 65 19 109 54 139 110 17 33 22 58 22 127 0 78 -3 90
-30 134 -50 82 -167 122 -269 93z m126 -18 c93 -73 97 -349 7 -425 -58 -48
-118 -25 -161 63 -30 62 -33 211 -5 284 33 86 105 121 159 78z"/>
<path d="M2654 2086 c-100 -32 -157 -118 -157 -234 0 -140 72 -223 204 -237
l54 -5 -40 19 c-22 10 -47 27 -56 37 -29 32 -49 111 -49 188 0 163 65 252 164
225 46 -13 83 -52 100 -108 l14 -46 0 85 c1 60 -2 78 -8 63 -11 -28 -14 -28
-56 -3 -42 26 -117 34 -170 16z"/>
<path d="M3117 2084 c-187 -59 -213 -355 -39 -443 125 -63 271 -14 325 109 38
86 21 217 -36 278 -55 60 -164 84 -250 56z m127 -15 c54 -43 71 -93 71 -214 0
-95 -3 -116 -24 -158 -23 -48 -61 -77 -100 -77 -34 0 -88 57 -106 111 -25 73
-17 228 13 286 38 73 94 93 146 52z"/>
<path d="M1580 2083 c36 -13 40 -33 40 -227 0 -105 -4 -196 -8 -202 -4 -6 -16
-16 -27 -22 -16 -9 4 -11 95 -11 102 0 111 1 80 12 l-35 12 -3 103 c-3 98 -2
102 18 102 35 0 61 -19 76 -57 9 -19 17 -33 19 -31 2 2 0 44 -4 93 -5 50 -9
83 -10 74 -2 -32 -41 -69 -72 -69 l-29 0 0 104 c0 85 3 105 16 110 25 10 71 7
99 -6 28 -13 65 -74 65 -108 0 -11 3 -20 8 -20 4 0 8 34 9 75 l1 75 -176 -1
c-98 0 -170 -3 -162 -6z"/>
<path d="M2875 1753 c-14 -63 -35 -94 -78 -113 -23 -11 -36 -20 -29 -20 7 0
30 9 52 20 49 25 49 25 60 -2 6 -17 9 0 9 60 1 84 -4 103 -14 55z"/>
<path d="M2020 1395 c-17 -37 -30 -71 -30 -76 0 -15 27 -10 34 6 3 9 18 15 40
15 21 0 36 -6 40 -15 4 -13 36 -23 36 -12 0 2 -13 35 -28 73 -38 93 -54 94
-92 9z m60 -17 c0 -11 -8 -18 -20 -18 -23 0 -24 1 -8 35 12 27 28 18 28 -17z"/>
<path d="M2228 1445 c-79 -44 -16 -159 71 -129 30 11 44 64 17 64 -9 0 -16 -9
-16 -20 0 -14 -7 -20 -23 -20 -29 0 -47 18 -47 46 0 31 24 47 59 39 38 -8 51
12 16 25 -34 13 -44 12 -77 -5z"/>
<path d="M2400 1385 l0 -75 60 0 c47 0 60 3 60 15 0 11 -11 15 -40 15 -29 0
-40 4 -40 15 0 11 11 15 36 15 45 0 42 24 -4 28 -46 5 -43 32 3 32 24 0 35 5
35 15 0 12 -13 15 -55 15 l-55 0 0 -75z"/>
<path d="M2590 1385 c0 -60 3 -75 15 -75 11 0 15 12 15 46 l0 47 35 -47 c52
-68 65 -62 65 29 0 59 -3 75 -14 75 -11 0 -16 -14 -18 -47 l-3 -48 -34 48
c-49 68 -61 63 -61 -28z"/>
<path d="M2818 1440 c-33 -25 -39 -49 -22 -88 14 -35 49 -49 89 -35 33 11 28
29 -9 25 -35 -3 -56 13 -56 43 0 31 24 49 55 41 37 -9 53 4 24 20 -33 18 -52
17 -81 -6z"/>
<path d="M2970 1453 c0 -5 11 -26 25 -48 13 -22 25 -52 25 -67 0 -18 5 -28 15
-28 9 0 15 9 15 23 0 12 11 42 25 66 29 49 31 61 11 61 -7 0 -19 -13 -26 -30
-7 -16 -16 -30 -21 -30 -5 0 -15 14 -24 30 -14 27 -45 42 -45 23z"/>
</g>
</svg>
